<svg version="1.1" class="challenge_logo" xmlns="http://www.w3.org/2000/svg" xmlns:xlink="http://www.w3.org/1999/xlink" x="0px" y="0px"
	 viewBox="0 0 261.3 159.7" style="enable-background:new 0 0 261.3 159.7;" xml:space="preserve">
<style type="text/css">
	.st0{fill:#F4F4F4;}
	.st1{fill:#55BAFF;}
	.st2{fill:#1DB24B;}
	.st3{fill:#5B5B5B;}
	.st4{opacity:0.2;}
	.st5{fill:#FFF42E;}
	.st6{fill:#ED9C1B;}
	.st7{fill:#FFFFFF;}
	.st8{opacity:0.33;fill:#ED9C1B;}
	.st9{fill:#161616;}
	.st10{fill:#F2F2F2;}
	.st11{fill:#3F3F3F;}
	.st12{fill:#0052B5;}
	.st13{fill:#383838;}
	.st14{fill:#0088CE;}
	.st15{fill:#ED1944;}
	.st16{fill:#FFCC00;}
</style>
<g>
	<g>
		<g>
			<path class="st0" d="M253.8,106.4c-0.4-0.8-0.9-1.5-1.5-2.1c0-0.5,0.1-1,0.1-1.5c0-9.4-7.6-17-17-17c-5.9,0-11.2,3.1-14.2,7.7
				c-1.9-0.7-3.9-1.1-6-1.1c-0.4,0-0.8,0-1.3,0.1c-1.6-1.9-3.9-3.1-6.5-3.1c-3.9,0-7.2,2.6-8.1,6.2c-3.1-2.9-7.2-4.7-11.7-4.7
				c-2.1,0-4.1,0.4-6,1.1c-1.2-0.7-2.6-1.1-4.2-1.1c-3.9,0-7.1,2.6-8.1,6.1c-1.8-0.6-3.7-1-5.7-1c-2.7,0-5.2,0.6-7.5,1.8
				c-2.1-5.8-7.6-9.9-14.1-9.9c-5.4,0-10.2,2.9-12.8,7.3c-1.7-0.6-3.5-0.9-5.4-0.9c-0.6,0-1.2,0-1.8,0.1c-1.5-2.1-4-3.5-6.8-3.5
				c-1.1,0-2.2,0.2-3.2,0.6c-2.7-2.7-6.4-4.3-10.5-4.3c-5.7,0-10.6,3.2-13.2,7.9c-0.6-0.1-1.2-0.1-1.8-0.1c-1.9,0-3.7,0.3-5.4,0.9
				c-2.7-2.8-6.5-4.5-10.7-4.5c-5.5,0-10.3,3-12.9,7.3c-1-0.4-2-0.6-3.2-0.6c-4.7,0-8.5,3.8-8.5,8.5c0,1.6,0.4,3,1.2,4.3
				c-1.7,2.6-2.7,5.7-2.7,9.1c0,8.8,6.7,16,15.3,16.9c-1.4,1.9-1.9,4.4-1.3,6.8c1.1,4.5,5.6,7.4,10.2,6.3c1.6-0.4,3-1.2,4.1-2.3
				c3.5,4,9.1,6.6,15.3,6.6c4.5,0,8.7-1.4,12-3.7c2.7,1.8,6,2.9,9.5,2.9c3.5,0,6.7-1.1,9.4-2.9c3.1,3,7.3,4.8,11.9,4.8
				c4,0,7.7-1.4,10.6-3.7c2.7,1.8,5.9,2.8,9.3,2.8c3.6,0,7-1.1,9.7-3.1c3.4,1.6,7.3,2.5,11.4,2.5c4.5,0,8.8-1.1,12.5-3
				c3.4,1.7,7.3,2.6,11.4,2.6c4.3,0,8.4-1,11.8-2.8c2.3,1.2,4.9,1.8,7.6,1.8c7.2,0,13.3-4.4,15.8-10.7c0.5,0,1,0.1,1.6,0.1
				c9.4,0,17-7.6,17-17c0-2.3-0.5-4.5-1.3-6.4c0.6-0.1,1.3-0.4,1.9-0.7C254.3,115.7,255.9,110.6,253.8,106.4z"/>
			<path class="st1" d="M253.5,106.6c-0.4-0.7-0.9-1.4-1.4-2c-0.1-0.1-0.1-0.2-0.1-0.3c0.3-3.7-0.6-7.4-2.7-10.4
				c-1-1.5-2.3-2.8-3.7-3.9c-1.4-1.1-3.1-1.9-4.8-2.5c-1.7-0.5-3.5-0.8-5.3-0.7c-1.8,0.1-3.5,0.4-5.2,1.1c-3.3,1.2-6,3.7-7.8,6.6
				c-0.4,0.6-1.1,0.9-1.8,0.7l-0.2-0.1c-1.1-0.3-2.2-0.6-3.3-0.7c-0.6-0.1-1.1-0.1-1.7-0.1c-0.5,0-1.1,0.1-1.6,0.1
				c-0.6,0.1-1.2-0.2-1.5-0.6l-0.1-0.1c-0.8-0.9-1.8-1.5-2.9-1.8c-1.1-0.3-2.3-0.3-3.3,0c-1.1,0.3-2,0.9-2.7,1.7
				c-0.7,0.8-1.2,1.8-1.4,2.8c-0.3,1.5-1.8,2.4-3.2,2c-0.4-0.1-0.8-0.3-1.2-0.6l-0.2-0.2c-1-0.9-2.1-1.6-3.3-2.2
				c-1.2-0.6-2.4-1-3.7-1.2c-1.3-0.2-2.6-0.2-3.9-0.1c-1.3,0.1-2.5,0.5-3.7,1c-0.9,0.4-1.9,0.3-2.7-0.1l-0.2-0.1
				c-0.7-0.4-1.4-0.6-2.2-0.6c-0.8,0-1.5,0.1-2.2,0.4c-0.7,0.3-1.3,0.7-1.8,1.3c-0.5,0.6-0.8,1.2-1,1.9l0,0c-0.6,1.9-2.5,3-4.4,2.4
				c-0.1,0-0.1,0-0.2-0.1c-1.7-0.6-3.5-0.9-5.3-0.8c-1.8,0.1-3.5,0.5-5.2,1.3l0,0c-1.7,0.8-3.8,0.1-4.7-1.6
				c-0.1-0.1-0.1-0.2-0.1-0.4c-0.7-2-2-3.9-3.7-5.2c-1.7-1.4-3.8-2.3-5.9-2.6c-2.2-0.3-4.5,0-6.5,1c-2,0.9-3.9,2.5-5.1,4.4l-0.1,0.2
				c-0.7,1-1.9,1.4-3,1c-1-0.4-1.9-0.6-2.9-0.8c-0.5-0.1-1-0.1-1.5-0.2l-1.5,0l-0.4,0c-0.8,0-1.4-0.4-1.8-1c-0.7-1.1-1.9-2-3.2-2.5
				c-1.3-0.4-2.8-0.4-4.1,0l-0.1,0.1c-0.7,0.3-1.5,0-2-0.5c-1.4-1.5-3.1-2.6-5-3.3c-1.9-0.7-4-1-6.1-0.7c-2.1,0.3-4.1,1-5.8,2.2
				c-1.7,1.2-3.2,2.7-4.3,4.6c-0.3,0.5-0.7,0.7-1.2,0.7l0,0l-1.7-0.1c-0.6,0-1.1,0-1.7,0.1c-1.1,0.1-2.2,0.3-3.3,0.7
				c-0.5,0.2-0.9,0-1.3-0.3C78.8,95.2,77,94,75,93.3c-2-0.7-4.1-0.9-6.2-0.7c-2.1,0.3-4.1,1-5.8,2.2c-1.7,1.2-3.2,2.7-4.2,4.5
				c-0.3,0.6-1,0.8-1.6,0.6l0,0c-1.4-0.5-2.9-0.6-4.3-0.2c-1.4,0.4-2.7,1.2-3.6,2.3c-0.4,0.6-0.8,1.2-1.1,1.8
				c-0.2,0.7-0.4,1.4-0.4,2.1c-0.1,1.4,0.3,2.8,1,4c0.4,0.6,0.3,1.2,0,1.8l-0.1,0.1c-1.3,2.2-2,4.8-2.1,7.3c0,1.3,0.1,2.5,0.4,3.8
				c0.3,1.2,0.7,2.4,1.3,3.5c1.2,2.2,2.9,4.1,4.9,5.4c2,1.4,4.4,2.1,6.8,2.3c1.6,0.1,2.7,1.5,2.6,3.1c0,0.5-0.2,0.9-0.4,1.3
				l-0.1,0.2c-0.7,1.2-1,2.6-0.8,3.9c0.2,1.3,1,2.5,2,3.3c1,0.8,2.3,1.2,3.6,1.1c1.3-0.1,2.5-0.7,3.3-1.6c1.3-1.4,3.4-1.4,4.8-0.2
				c0.1,0.1,0.1,0.1,0.2,0.2l0.1,0.1c1.4,1.5,3,2.7,4.9,3.5c1.9,0.9,3.9,1.4,5.9,1.6c2.1,0.2,4.2,0,6.2-0.5c2-0.5,3.9-1.4,5.5-2.5
				c1.3-0.9,3-0.9,4.3-0.1l0.1,0.1c2.2,1.4,4.7,2.1,7.3,2.1c2.6,0,5.1-0.8,7.2-2.3c1.6-1.1,3.7-0.9,5.1,0.4l0.1,0.1
				c1.1,1.1,2.5,1.9,3.9,2.5c1.4,0.6,2.9,0.9,4.5,1c3.1,0.2,6.2-0.9,8.6-2.8l0,0c1.5-1.2,3.5-1.2,5-0.2c2.1,1.4,4.6,2.1,7.2,2.1
				c2.5,0,5-0.8,7.1-2.2l0,0c1.3-0.9,2.8-0.9,4.1-0.3c3.1,1.5,6.6,2.2,10.1,2.2c3.5,0,7-0.8,10.2-2.4l0.2-0.1c1.1-0.5,2.3-0.5,3.3,0
				c3,1.6,6.4,2.4,9.9,2.5c3.5,0.1,7-0.6,10.2-2.1l0.3-0.1c0.9-0.4,1.8-0.3,2.6,0.1c1.7,1,3.5,1.6,5.5,1.8c1,0.1,2,0.1,3,0
				c1-0.1,2-0.3,2.9-0.6c1-0.3,1.9-0.7,2.8-1.2c0.9-0.5,1.7-1.1,2.5-1.8c1.6-1.3,2.8-3.1,3.7-5l0.1-0.2c0.3-0.7,1-1,1.8-1
				c2.6,0.3,5.3,0.1,7.8-0.9c2.5-1,4.7-2.6,6.4-4.8c1.8-2.1,2.9-4.7,3.3-7.5c0.5-2.7,0.1-5.6-0.9-8.3l0,0c-0.1-0.3,0-0.6,0.3-0.7
				c0,0,0.1,0,0.1,0c2.3-0.5,4.4-2.1,5.4-4.3C254.6,111.4,254.6,108.8,253.5,106.6z M254.2,106.3c1.2,2.4,1.3,5.3,0.1,7.7
				c-0.6,1.2-1.4,2.3-2.4,3.2c-1,0.9-2.3,1.5-3.6,1.8l0.4-0.7c1.2,2.8,1.7,5.8,1.4,8.9c-0.3,3-1.3,6-3.1,8.5c-1.7,2.6-4.2,4.7-7,6.1
				c-2.8,1.4-6,2.1-9.2,1.9l1.8-1.1c-0.9,2.4-2.2,4.7-4.1,6.7c-0.9,1-1.9,1.9-3,2.6c-1.1,0.8-2.3,1.4-3.5,2
				c-1.2,0.6-2.5,0.9-3.9,1.2c-1.3,0.2-2.7,0.4-4.1,0.4c-2.7,0-5.5-0.7-8-1.8l2.9,0c-3.9,2.2-8.5,3.4-13,3.6
				c-4.5,0.2-9.2-0.7-13.4-2.7l3.5,0c-4.2,2.3-8.9,3.5-13.6,3.6c-4.7,0.2-9.5-0.7-13.8-2.7l4.2-0.4c-3.4,2.4-7.6,3.8-11.8,3.9
				c-4.2,0.1-8.5-1.2-12-3.5l5-0.2c-2,1.6-4.3,2.8-6.7,3.6c-2.4,0.8-5,1.1-7.6,1c-5.1-0.3-10.1-2.5-13.7-6.1l5.2,0.5
				c-3.5,2.3-7.6,3.5-11.8,3.5c-4.1,0-8.3-1.3-11.6-3.7l4.4,0c-2.5,1.7-5.2,2.9-8.1,3.5c-2.9,0.7-5.8,0.8-8.7,0.5
				c-2.9-0.3-5.7-1.1-8.4-2.5c-2.6-1.3-5-3.2-6.9-5.4l5.1,0.1c-2.1,2.1-5,3.4-7.9,3.4c-2.9,0.1-5.9-1-8.1-2.9
				c-2.2-1.9-3.6-4.6-3.9-7.5c-0.3-2.9,0.5-5.8,2.2-8l2.1,4.5c-3.3-0.5-6.6-1.7-9.2-3.7c-2.7-2-4.8-4.6-6.1-7.6
				c-0.7-1.5-1.1-3.1-1.4-4.7c-0.2-1.6-0.3-3.2-0.2-4.8c0.3-3.2,1.4-6.3,3.2-9l0,1.9c-1-1.8-1.5-4-1.2-6.1c0.1-1,0.4-2.1,0.8-3
				c0.4-0.9,1-1.8,1.7-2.6c1.4-1.5,3.2-2.6,5.2-3.1c2-0.5,4.1-0.3,6,0.5l-1.7,0.6c1.3-2.1,3.1-3.9,5.2-5.3c2.1-1.4,4.5-2.2,6.9-2.5
				c2.5-0.3,5,0,7.3,0.8c2.3,0.8,4.5,2.2,6.2,4l-1.3-0.3c1.2-0.4,2.5-0.7,3.8-0.9c0.6-0.1,1.3-0.1,2-0.1l2,0.1l-1.3,0.7
				c1.2-2.2,2.8-4.2,4.9-5.7c2.1-1.5,4.5-2.5,7-2.9c2.5-0.4,5.2-0.3,7.6,0.4c2.5,0.7,4.8,2.1,6.7,3.9l-2.2-0.4
				c2.1-0.9,4.6-1.2,6.9-0.6c2.3,0.6,4.4,1.9,5.9,3.8l-2.2-1l2.1-0.2c0.7,0,1.4,0,2.1,0.1c1.4,0.1,2.7,0.4,4.1,0.8l-3.1,1.2
				c1.6-2.9,4.1-5.3,7-6.9c3-1.6,6.4-2.3,9.8-2.1c3.4,0.2,6.8,1.5,9.5,3.6c2.7,2.1,4.9,4.9,6.1,8.2l-4.9-2c2.4-1.2,5.1-2,7.9-2.1
				c2.7-0.2,5.5,0.2,8.1,1.1l-4.6,2.4c0.5-1.7,1.4-3.4,2.6-4.7c1.2-1.3,2.7-2.4,4.4-3.1c1.7-0.7,3.5-0.9,5.3-0.8
				c1.8,0.1,3.6,0.7,5.1,1.6l-2.9-0.2c1.8-0.6,3.7-1,5.6-1.1c1.9-0.1,3.8,0.1,5.6,0.5c1.8,0.4,3.6,1.1,5.2,2
				c1.6,0.9,3.1,2.1,4.4,3.4l-4.6,1.3c0.6-2,1.7-3.7,3.3-5.1c1.5-1.3,3.4-2.3,5.3-2.6c1.9-0.4,4-0.1,5.8,0.6
				c1.8,0.7,3.4,1.9,4.5,3.4l-1.7-0.7c0.7,0,1.4,0,2.1,0c0.7,0.1,1.4,0.1,2,0.3c1.3,0.3,2.7,0.7,3.9,1.2l-1.9,0.6
				c2.4-3.3,5.9-5.8,9.7-6.9c1.9-0.6,3.9-0.8,5.9-0.7c2,0.1,3.9,0.5,5.8,1.2c3.7,1.4,6.8,4,8.9,7.2c1.1,1.6,1.8,3.4,2.2,5.3
				c0.4,1.9,0.6,3.8,0.4,5.7l-0.1-0.3C253.3,104.7,253.8,105.4,254.2,106.3z"/>
		</g>
		<g>
			<path class="st0" d="M253.8,106.4c-0.4-0.8-0.9-1.5-1.5-2.1c0-0.5,0.1-1,0.1-1.5c0-9.4-7.6-17-17-17c-5.9,0-11.2,3.1-14.2,7.7
				c-1.9-0.7-3.9-1.1-6-1.1c-0.4,0-0.8,0-1.3,0.1c-1.6-1.9-3.9-3.1-6.5-3.1c-3.9,0-7.2,2.6-8.1,6.2c-3.1-2.9-7.2-4.7-11.7-4.7
				c-2.1,0-4.1,0.4-6,1.1c-1.2-0.7-2.6-1.1-4.2-1.1c-3.9,0-7.1,2.6-8.1,6.1c-1.8-0.6-3.7-1-5.7-1c-2.7,0-5.2,0.6-7.5,1.8
				c-2.1-5.8-7.6-9.9-14.1-9.9c-5.4,0-10.2,2.9-12.8,7.3c-1.7-0.6-3.5-0.9-5.4-0.9c-0.6,0-1.2,0-1.8,0.1c-1.5-2.1-4-3.5-6.8-3.5
				c-1.1,0-2.2,0.2-3.2,0.6c-2.7-2.7-6.4-4.3-10.5-4.3c-5.7,0-10.6,3.2-13.2,7.9c-0.6-0.1-1.2-0.1-1.8-0.1c-1.9,0-3.7,0.3-5.4,0.9
				c-2.7-2.8-6.5-4.5-10.7-4.5c-5.5,0-10.3,3-12.9,7.3c-1-0.4-2-0.6-3.2-0.6c-4.7,0-8.5,3.8-8.5,8.5c0,1.6,0.4,3,1.2,4.3
				c-1.7,2.6-2.7,5.7-2.7,9.1c0,8.8,6.7,16,15.3,16.9c-1.4,1.9-1.9,4.4-1.3,6.8c1.1,4.5,5.6,7.4,10.2,6.3c1.6-0.4,3-1.2,4.1-2.3
				c3.5,4,9.1,6.6,15.3,6.6c4.5,0,8.7-1.4,12-3.7c2.7,1.8,6,2.9,9.5,2.9c3.5,0,6.7-1.1,9.4-2.9c3.1,3,7.3,4.8,11.9,4.8
				c4,0,7.7-1.4,10.6-3.7c2.7,1.8,5.9,2.8,9.3,2.8c3.6,0,7-1.1,9.7-3.1c3.4,1.6,7.3,2.5,11.4,2.5c4.5,0,8.8-1.1,12.5-3
				c3.4,1.7,7.3,2.6,11.4,2.6c4.3,0,8.4-1,11.8-2.8c2.3,1.2,4.9,1.8,7.6,1.8c7.2,0,13.3-4.4,15.8-10.7c0.5,0,1,0.1,1.6,0.1
				c9.4,0,17-7.6,17-17c0-2.3-0.5-4.5-1.3-6.4c0.6-0.1,1.3-0.4,1.9-0.7C254.3,115.7,255.9,110.6,253.8,106.4z"/>
		</g>
	</g>
	<g>
		<g>
			<path class="st2" d="M175.8,132.3l0,13.7l15.3,0l0-13.7L175.8,132.3L175.8,132.3z M185.9,143l-3.6,0l0-6.4l1.8,0l0,5.3l1.7,0
				c1.2,0,1.7-0.8,1.7-3c0-2.1-0.6-2.8-1.8-2.8l-3.9,0l0,6.8l-1.8,0l0-6.8l-2.6,0l0-1.1l8.9,0c2.1,0,3.2,1.1,3.2,3.9
				C189.4,142.5,187.9,143,185.9,143L185.9,143z"/>
		</g>
		<g>
			<path class="st3" d="M110.5,135c1.3,0,2.5,0.6,2.8,2h-1c-0.3-0.8-1.1-1.1-1.8-1.1c-0.6,0-1.6,0.3-1.6,1.1c0,0.6,0.5,1,1.2,1.1
				l0.8,0.2c1.1,0.2,2.5,0.7,2.5,2.1c0,1.4-1.3,2.2-2.8,2.2c-1.7,0-2.8-0.9-3-2.4h1c0.2,1,0.9,1.5,2,1.5c1.1,0,1.7-0.5,1.7-1.2
				c0-0.8-0.7-1.1-1.6-1.3l-0.9-0.2c-1-0.2-2-0.8-2-2C107.9,135.6,109.3,135,110.5,135z"/>
			<path class="st3" d="M117.8,141.7c-0.3,0.5-0.8,0.9-1.7,0.9c-1.3,0-1.7-0.8-1.7-2.1V137h0.9v3.2c0,0.8,0.1,1.6,1.1,1.6
				c0.9,0,1.4-0.6,1.4-1.8v-3h0.9v5.4h-0.9V141.7z"/>
			<path class="st3" d="M121.1,137v0.9c0.3-0.6,0.9-0.9,1.8-0.9c1.3,0,2.3,1,2.3,2.8c0,1.8-1,2.8-2.3,2.8c-0.9,0-1.4-0.4-1.8-0.9
				v2.6h-0.9V137H121.1z M122.6,141.8c1,0,1.5-0.7,1.5-2s-0.5-2-1.5-2c-0.8,0-1.6,0.6-1.6,2C121,141.2,121.8,141.8,122.6,141.8z"/>
			<path class="st3" d="M127.1,137v0.9c0.3-0.6,0.9-0.9,1.8-0.9c1.3,0,2.3,1,2.3,2.8c0,1.8-1,2.8-2.3,2.8c-0.9,0-1.4-0.4-1.8-0.9
				v2.6h-0.9V137H127.1z M128.7,141.8c1,0,1.5-0.7,1.5-2s-0.5-2-1.5-2c-0.8,0-1.6,0.6-1.6,2C127.1,141.2,127.8,141.8,128.7,141.8z"
				/>
			<path class="st3" d="M134.6,136.9c1.3,0,2.6,0.9,2.6,2.8s-1.3,2.8-2.6,2.8c-1.3,0-2.6-0.9-2.6-2.8S133.3,136.9,134.6,136.9z
				 M134.6,141.8c0.9,0,1.6-0.6,1.6-2c0-1.4-0.7-2-1.6-2s-1.6,0.5-1.6,2C133,141.2,133.7,141.8,134.6,141.8z"/>
			<path class="st3" d="M140.9,138c-0.2,0-0.4,0-0.5,0c-0.8,0-1.3,0.5-1.3,1.7v2.8h-0.9V137h0.9v0.9c0.3-0.6,0.8-1,1.5-1
				c0.1,0,0.2,0,0.3,0V138z"/>
			<path class="st3" d="M142.1,135.7h0.9v1.4h1v0.7h-1v3.2c0,0.6,0,0.7,0.6,0.7h0.5v0.8h-0.7c-1,0-1.3-0.2-1.3-1.4v-3.3h-0.9V137
				h0.9V135.7z"/>
			<path class="st3" d="M144.7,139.8c0-1.7,1.1-2.8,2.6-2.8c1.7,0,2.6,1.4,2.5,3.1h-4.1c0,1.1,0.7,1.7,1.6,1.7
				c0.8,0,1.2-0.4,1.5-0.9h0.9c-0.3,0.9-1.1,1.7-2.4,1.7C145.6,142.6,144.7,141.4,144.7,139.8z M145.7,139.3h3.1
				c0-0.8-0.5-1.5-1.5-1.5C146.4,137.7,145.7,138.3,145.7,139.3z"/>
			<path class="st3" d="M154.6,135.2h0.9v7.3h-0.9v-0.8c-0.3,0.6-0.9,0.9-1.8,0.9c-1.3,0-2.3-1-2.3-2.8c0-1.8,1-2.8,2.3-2.8
				c0.9,0,1.4,0.4,1.8,0.9V135.2z M153.1,137.7c-1,0-1.5,0.7-1.5,2s0.5,2,1.5,2c0.8,0,1.6-0.6,1.6-2
				C154.6,138.3,153.9,137.7,153.1,137.7z"/>
			<path class="st3" d="M160.3,135.2v2.7c0.3-0.6,0.9-0.9,1.8-0.9c1.3,0,2.3,1,2.3,2.8c0,1.8-1,2.8-2.3,2.8c-0.9,0-1.4-0.4-1.8-0.9
				v0.8h-0.9v-7.3H160.3z M161.8,141.8c1,0,1.5-0.7,1.5-2s-0.5-2-1.5-2c-0.8,0-1.6,0.6-1.6,2C160.2,141.2,161,141.8,161.8,141.8z"/>
			<path class="st3" d="M169.3,137l-1.9,5.6c-0.4,1.2-0.7,1.5-1.9,1.5H165v-0.8h0.4c0.6,0,0.9,0,1.1-0.9l0-0.1l-2-5.4h1l1.4,4.2
				l1.3-4.2H169.3z"/>
		</g>
	</g>
	<g>
		<path class="st4" d="M92.1,123c16.9-5.5,25.9-16.7,30.2-28.7c-0.1,0-0.2,0-0.2,0c-1.5-2.1-4-3.5-6.8-3.5c-1.1,0-2.2,0.2-3.2,0.6
			c-2.7-2.7-6.4-4.3-10.5-4.3c-5.7,0-10.6,3.2-13.2,7.9c-0.6-0.1-1.2-0.1-1.8-0.1c-1.9,0-3.7,0.3-5.4,0.9c-2.7-2.8-6.5-4.5-10.7-4.5
			c-5.5,0-10.3,3-12.9,7.3c-1-0.4-2-0.6-3.2-0.6c-4.7,0-8.5,3.8-8.5,8.5c0,1.6,0.4,3,1.2,4.3c-1.2,2-2.1,4.2-2.5,6.5
			C55.3,125.2,70.8,130,92.1,123z"/>
		<path class="st5" d="M59.6,22.2c35.3-7.5,53.4,16.5,58,27c6.1,13.9,8.5,55-29,67.2s-56.3-13.1-62.5-25.6
			C13.7,66.2,27.4,29,59.6,22.2z"/>
		<path class="st6" d="M63.8,11.5c0,0,1.1-9.7-1.2-11.3c-2.3-1.5-3.8,5-3.4,9.7c0.3,4.7,2.2,7.8,3.4,6.7S63.8,11.5,63.8,11.5z"/>
		<path class="st6" d="M130.9,74.2c0,0,9.4,2.8,11.3,0.7c1.9-2-4.3-4.6-8.9-5s-8,0.8-7.1,2.2C127.1,73.6,130.9,74.2,130.9,74.2z"/>
		<path class="st6" d="M11.6,69.5c0,0-9.7-1.8-11.3,0.5c-1.7,2.2,4.7,4.1,9.4,4s7.9-1.7,6.9-3S11.6,69.5,11.6,69.5z"/>
		<path class="st6" d="M57.9,126.8c0,0-2.8,6-0.8,7.3c2,1.4,4.6-2.5,5-5.5c0.5-3-0.8-5.3-2.2-4.8S57.9,126.8,57.9,126.8z"/>
		<path class="st6" d="M120.3,17.1c-0.5-2.8-4.4,3.1-7.5,6.6s-4.1,7-2.4,7.1C112.1,30.9,120.8,19.9,120.3,17.1z"/>
		<path class="st6" d="M34.1,116.7c0,0-7.1,7.4-6.6,10.2s5.5-2.2,8.6-5.7c3.2-3.5,4.1-6.9,2.5-7.1S34.1,116.7,34.1,116.7z"/>
		<path class="st6" d="M17.2,95c0,0-9.4,4.2-10,6.9c-0.6,2.7,5.9,0,10.1-2s6.4-4.9,5-5.6C20.9,93.6,17.2,95,17.2,95z"/>
		<path class="st6" d="M87.4,128.9c0.1-0.3,0.1-0.6,0-0.9c-0.3-1.3-1.3-5.1-3.3-5.5c-2.4-0.5-3.2,4.1-2.5,7.1c0.7,3,2.8,4.6,3.9,3.6
			C86.5,132.4,87.2,129.9,87.4,128.9z"/>
		<path class="st6" d="M94.6,14.7c0,0,5.4-8.2,4-10.6s-5.6,2.8-7.4,7.1c-1.8,4.4-1.5,7.9,0.1,7.5C92.9,18.2,94.6,14.7,94.6,14.7z"/>
		<path class="st6" d="M18.6,41c0,0-8.4-5-10.8-3.5s3,5.5,7.4,7.1s8,1.2,7.5-0.4C22.2,42.5,18.6,41,18.6,41z"/>
		<path class="st6" d="M138.8,42.7c1-2.6-5.3,0.2-9.9,1.5c-4.5,1.3-7.2,3.7-5.8,4.7C124.4,49.9,137.7,45.3,138.8,42.7z"/>
		<path class="st6" d="M134.5,105.3c2.7-0.7-3.3-4.2-6.9-7.2c-3.7-3-7.2-3.7-7.2-2C120.3,97.8,131.8,106,134.5,105.3z"/>
		<path class="st6" d="M103.4,119.1c0,0,2.4,7.6,5,7.6c2.6,0,1.6-5.4-0.4-8.6c-1.9-3.2-4.6-4.6-5.3-3.2
			C102,116.3,103.4,119.1,103.4,119.1z"/>
		<path class="st6" d="M36.7,21.6c0,0-4.4-8.8-7.2-8.7c-2.8,0-0.4,6.2,2.5,10s6.1,5.3,6.5,3.6C38.9,24.9,36.7,21.6,36.7,21.6z"/>
		<path class="st7" d="M101.5,39.4c6.9,7.8,8.4,14.8,10.2,15.4s-2.8-12.8-10.2-19.8c-7.3-7-15.2-9.9-17.4-10.5
			c-4.4-1.3-3.3-0.2-1.3,1.1C87.3,28.6,96.7,34.1,101.5,39.4z"/>
		<path class="st7" d="M112.4,58.2c0-1.1,1.6-1.4,2.6,2c1,3.4,1.1,7.7-0.3,5.8C112.9,63.5,112.4,59.2,112.4,58.2z"/>
		<path class="st8" d="M76,106.1c-2-0.1-3.8-1-5-2.5c-1.9-2.4-4.6-4.1-6.2-3.3c-2.7,1.3-7.5-1.8-12.3-5.1c-2-1.3-4.8-2-7.5-2.3
			c-1.6-0.2-3.1-0.9-4.1-2.1c-2-2.4-3.8-5.1-5.2-8.2c-6.5-14-3.5-30.9,2.2-45.6c-13.6,14.1-17.5,36.3-9.3,52.7
			c6,11.8,23.8,35.8,59.3,24.2c9.2-3,15.9-7.9,20.7-13.6C99,104.4,87.4,106.6,76,106.1z"/>
	</g>
	<g>
		<path class="st9" d="M88.5,34c-8.8,2.6-15.7,8.6-20.4,9.9c-4.8,1.3-10.8-1.2-22.7,0.8c-14.6,2.4-25.9,8.2-25.9,8.2l1.8,5.4
			c0,0,2.6,0,3.9,2.6c1.9,3.7,3.3,10.6,7.8,13.8c5.2,3.7,9.5,3.7,13.7,3c4.1-0.8,13.1-3.6,16.7-10.5c1.4-2.6,2.2-6,2.6-9
			c0.5-3.5,0.4-7.2,1.4-8.5c0.4-0.5,1.1-0.5,1.9-0.7c1.1-0.2,2-0.5,2.8,0.1c2.1,1.3,3.7,5,6.1,8.2c1.5,2,3.7,3.9,5.9,5.4
			c5.7,3.8,16,2.1,19.6,1c3.9-1.2,8.1-3.7,10-8.1c0.9-2.1,1.3-4.5,1.3-6.9c0-3.5-0.6-7-0.6-9.5c0-3.4,2-4.1,2-4.1l-0.7-5.9
			C115.8,29,103.1,29.6,88.5,34z M60,67.8c-3.5,5.2-10.2,7.1-10.2,7.1l-3.4,0.8c0,0-2.4,0.3-4.8-0.1c-1.9-0.3-3.8-1.1-5.7-2.4
			c-0.3-0.2-0.7-0.5-1-0.8c-0.9-0.8-1.8-1.8-2.5-2.9c-0.4-0.6-0.8-1.2-1.1-1.9c-0.8-1.4-1.4-2.8-1.8-4.1C29,62.2,28.7,61,28.6,60
			c-0.4-3,0.8-6.3,3.8-8.3c1.2-0.8,3.3-1.7,5.7-2.5c1.6-0.5,3.3-1,5.1-1.4c0.9-0.2,1.7-0.4,2.6-0.5c1.6-0.3,3.2-0.5,4.7-0.7
			c2-0.2,3.8-0.2,5.1,0c3.5,0.6,6,3.6,6.4,5.3C62.9,55.7,63,63.3,60,67.8z M106.8,59.5c-2,1.5-4.3,2.3-4.3,2.3l-3.3,0.8
			c-0.1,0-0.2,0-0.4,0.1c-1.4,0.2-7.2,1-11.9-1.5c0,0-0.1,0-0.1,0c-1-0.6-2-1.3-2.9-2.2c-0.5-0.5-0.9-1-1.4-1.5
			c-0.9-1-1.6-2.2-2.3-3.3c-1.3-2.2-2.2-4.4-2.5-6.1c-0.4-1.7,0.4-5.5,3.2-7.7C83,38.9,87,37.2,91.3,36c1.7-0.5,3.4-0.9,5-1.3
			c0.9-0.2,1.7-0.3,2.5-0.5c1.7-0.3,3.3-0.4,4.5-0.3c0.2,0,0.3,0,0.5,0c3.6,0.4,6.2,2.7,7.2,5.6c1.2,3.2,2.1,10.3-0.3,15.1
			C109.7,56.7,108.4,58.3,106.8,59.5z"/>
		<path class="st10" d="M32.4,51.7c-3,2-4.2,5.3-3.8,8.3c0.1,1,0.4,2.2,0.9,3.5l8.6-14.3C35.7,50,33.6,50.9,32.4,51.7z"/>
		<path class="st11" d="M32.4,51.7c-3,2-4.2,5.3-3.8,8.3c0.1,1,0.4,2.2,0.9,3.5l8.6-14.3C35.7,50,33.6,50.9,32.4,51.7z"/>
		<path class="st10" d="M55.6,46.7c-1.3-0.2-3.1-0.2-5.1,0L34.9,72.4c0.3,0.3,0.7,0.6,1,0.8c1.9,1.3,3.8,2.1,5.7,2.4
			c2.5,0.4,4.8,0.1,4.8,0.1l3.4-0.8c0,0,6.7-1.9,10.2-7.1c3-4.5,2.9-12,1.9-15.7C61.5,50.4,59.1,47.3,55.6,46.7z"/>
		<path class="st11" d="M55.6,46.7c-1.3-0.2-3.1-0.2-5.1,0L34.9,72.4c0.3,0.3,0.7,0.6,1,0.8c1.9,1.3,3.8,2.1,5.7,2.4
			c2.5,0.4,4.8,0.1,4.8,0.1l3.4-0.8c0,0,6.7-1.9,10.2-7.1c3-4.5,2.9-12,1.9-15.7C61.5,50.4,59.1,47.3,55.6,46.7z"/>
		<path class="st10" d="M43.2,47.9L31.3,67.7c0.3,0.6,0.7,1.3,1.1,1.9l13.3-22.2C44.9,47.5,44,47.7,43.2,47.9z"/>
		<path class="st11" d="M43.2,47.9L31.3,67.7c0.3,0.6,0.7,1.3,1.1,1.9l13.3-22.2C44.9,47.5,44,47.7,43.2,47.9z"/>
		<path class="st10" d="M81,40.4c-2.8,2.2-3.6,6-3.2,7.7c0.4,1.6,1.3,3.9,2.5,6.1L91.3,36C87,37.2,83,38.9,81,40.4z"/>
		<path class="st11" d="M81,40.4c-2.8,2.2-3.6,6-3.2,7.7c0.4,1.6,1.3,3.9,2.5,6.1L91.3,36C87,37.2,83,38.9,81,40.4z"/>
		<path class="st10" d="M96.3,34.7L82.6,57.4c0.4,0.5,0.9,1,1.4,1.5l14.8-24.7C98,34.4,97.2,34.6,96.3,34.7z"/>
		<path class="st11" d="M96.3,34.7L82.6,57.4c0.4,0.5,0.9,1,1.4,1.5l14.8-24.7C98,34.4,97.2,34.6,96.3,34.7z"/>
		<path class="st10" d="M111,39.6c-1.1-2.9-3.7-5.2-7.2-5.6c-0.2,0-0.3,0-0.5,0L86.9,61.1c4.7,2.5,10.5,1.8,11.9,1.5
			c0.1-0.1,0.3-0.1,0.4-0.1l3.3-0.8c0,0,2.2-0.8,4.3-2.3c1.6-1.2,2.9-2.7,3.9-4.8C113.1,49.9,112.2,42.8,111,39.6z"/>
		<path class="st11" d="M111,39.6c-1.1-2.9-3.7-5.2-7.2-5.6c-0.2,0-0.3,0-0.5,0L86.9,61.1c4.7,2.5,10.5,1.8,11.9,1.5
			c0.1-0.1,0.3-0.1,0.4-0.1l3.3-0.8c0,0,2.2-0.8,4.3-2.3c1.6-1.2,2.9-2.7,3.9-4.8C113.1,49.9,112.2,42.8,111,39.6z"/>
		<path class="st10" d="M38.1,49.3l-8.6,14.3c0.4,1.3,1,2.7,1.8,4.1l11.9-19.8C41.4,48.3,39.7,48.8,38.1,49.3z"/>
		<path class="st10" d="M45.8,47.4L32.4,69.5c0.7,1.1,1.6,2.1,2.5,2.9l15.5-25.7C49,46.8,47.4,47.1,45.8,47.4z"/>
		<path class="st10" d="M91.3,36L80.3,54.1c0.7,1.1,1.4,2.3,2.3,3.3l13.7-22.7C94.7,35.1,92.9,35.5,91.3,36z"/>
		<path class="st10" d="M98.8,34.3L84,58.9c0.9,0.9,1.8,1.6,2.9,2.2c0,0,0.1,0,0.1,0L103.3,34C102.1,33.9,100.6,34,98.8,34.3z"/>
	</g>
	<g>
		<path class="st12" d="M226.9,127.8H110.5c-8.4,0-15.2-6.8-15.2-15.2v0c0-8.4,6.8-15.2,15.2-15.2h116.4c8.4,0,15.2,6.8,15.2,15.2v0
			C242,121,235.2,127.8,226.9,127.8z"/>
		<path class="st1" d="M226.9,128.7H110.5c-8.8,0-16-7.2-16-16s7.2-16,16-16h116.4c8.8,0,16,7.2,16,16S235.7,128.7,226.9,128.7z
			 M110.5,98.4c-7.9,0-14.3,6.4-14.3,14.3s6.4,14.3,14.3,14.3h116.4c7.9,0,14.3-6.4,14.3-14.3s-6.4-14.3-14.3-14.3H110.5z"/>
		<g>
			<path class="st0" d="M251.9,75.4H120.9V40.2c0-3.7,3-6.6,6.6-6.6h117.7c3.7,0,6.6,3,6.6,6.6V75.4z"/>
			<path class="st1" d="M252.3,75.8H120.5V40.2c0-3.9,3.2-7.1,7.1-7.1h117.7c3.9,0,7.1,3.2,7.1,7.1V75.8z M121.4,74.9h130.1V40.2
				c0-3.4-2.8-6.2-6.2-6.2H127.6c-3.4,0-6.2,2.8-6.2,6.2V74.9z"/>
		</g>
		<g>
			<g>
				<path class="st1" d="M257.3,91.2c2-2.4,5.7-8.9,3.1-16.2c-2.4-7-9.7-11-15.4-11.8c-1-0.1-2.1-0.2-3.4-0.2c-3.7,0-10.1,0.6-13,2
					c-0.1,0-0.2,0.1-0.2,0.1c-1.1-0.4-2.2-0.7-3.2-0.7c-1.1,0-7-0.2-11.5-0.2c-4.5,0-5.6,0.1-6.3,0.3c-0.7,0.1-1.3,0.4-1.9,0.7
					c-0.6-0.4-1.3-0.7-2-1l-0.2-0.1c-1.1-0.4-2.4-0.6-4.1-0.6c-1.5,0-3,0.2-3.3,0.2c-5.2,0.4-6.4,1-7.5,1.7c-0.3,0.2-0.6,0.5-1,1
					c-1.2-1-2.7-1.6-4.3-1.7l-3.2-0.4c-0.5-0.1-2.2-0.3-3.8-0.3c-1.5,0-2.7,0.2-3.8,0.6c-0.7,0.3-1.3,0.6-1.9,1.1
					c-1.9-0.6-4.3-0.8-5.9-0.8c-0.5,0-1.7-0.1-2.9-0.1c-2,0-3.4,0.1-4.8,0.9c-0.4,0.2-1.1,0.6-2.1,1.8c-1.7-2-4-2.7-5.9-2.8
					l-4.1-0.2c-0.5-0.1-1.7-0.2-3-0.2c-1.8,0-3.2,0.2-4.4,0.8c-0.2,0.1-0.4,0.2-0.6,0.3c-1-0.6-2.2-1-3.5-1.2
					c-0.8-0.1-2-0.1-2.7-0.1c-2.6,0-4.7,0.2-6.1,0.6c-1,0.3-1.9,0.8-2.6,1.4c-2.1-0.9-5.5-1.2-8.1-1.2c-2.9,0-4.3,0.4-5.1,0.7
					c-0.4,0.2-0.9,0.4-1.3,0.7c-0.6-0.7-1.2-1.2-2-1.7c-2.2-1.5-6.8-1.7-9.2-1.7c-3.7,0-8.9,0.5-13.1,3c-6.5,3.9-9.3,10.9-7.4,18.8
					c0.4,1.7,1.1,3.3,2.2,4.7c-1.3,1.8-2,3.9-2.2,5.2c-1,5.2,0.8,9.6,4.8,11.8c2.4,1.3,7.6,2.7,12.8,2.7c3.5,0,6.6-0.6,9.2-1.7
					c2.4-1.1,4.4-2.5,6.1-4.2c3.1,3.2,7.2,4.8,12,4.8c1.4,0,2.8-0.1,4.2-0.4c2.9-0.6,5.7-2.1,8.2-4.5c1.8,2.2,4.8,3.4,8.9,3.4
					c1.4,0,2.8-0.1,4.1-0.4c1.4-0.3,2.7-0.8,3.8-1.6c0.7,0.2,1.4,0.3,2.1,0.3c0.5,0,0.9,0,1.4-0.1c2.1,2.5,5,3.2,5.8,3.4
					c1.1,0.2,2.8,0.2,3.7,0.2c4.8,0,7.5-0.7,9.2-2.6c1.2,0.3,2.6,0.4,4.1,0.4c1.2,0,2.3-0.1,3.4-0.3c1.6-0.3,3.1-0.9,4.4-1.8
					c0.9,0.3,1.7,0.4,2.6,0.4c0.2,0,0.3,0,0.5,0c0.8,0,1.6-0.2,2.3-0.4c1.7,1.9,4.2,3.1,6.7,3.2c0.1,0,0.3,0,0.4,0
					c1.4,0,4.8-0.1,7.7-1.2c1.8,1.2,3.6,1.6,4.1,1.7l0.6,0.1l0.8,0c3.5,0,11.8-0.2,14.2-0.3c1.6-0.1,3-0.5,4.1-1.2
					c1.9,1,4.4,1.5,7.4,1.5c1.1,0,2.3-0.1,3.6-0.2c1.4-0.1,2.7-0.6,3.9-1.3c0.7,0.3,1.3,0.6,2,0.7c0.6,0.1,1.1,0.2,1.8,0.2
					c3.3,0,7.4-1.6,8.8-2.4c2.1-1.2,3.5-3.3,4-6c0.2-1.3,0.5-4.5-1.5-6.8C257.9,92,257.7,91.7,257.3,91.2z"/>
				<g>
					<path class="st13" d="M93.3,105.7c-4.6,0-9.2-1.2-11.1-2.3c-2.7-1.5-3.8-4.5-3.1-8.1c0.3-1.5,1.6-4.7,3.8-5.8
						c-1.9-1.4-3.2-3.3-3.7-5.6c-1.5-6.3,0.7-11.9,5.8-15c3.6-2.1,8.1-2.6,11.4-2.6c0.2,0,5.7,0,7.3,1.1c3.6,2.4,2.9,7,2.6,9
						c-0.4,2.4-1.2,3.9-2.2,4.8c4,2.6,5.8,7.6,5.7,10.7c-0.1,2-0.8,8.9-8.6,12.3C98.9,105.2,96.3,105.7,93.3,105.7z"/>
				</g>
				<g>
					<path class="st13" d="M120.6,104.5c-5.9,0-10.4-3.1-12.6-8.7c-3-7.5-1.7-17.9-1.7-18l0-0.4c0.5-3.7,1.1-7.5,3.7-8.5
						c0.5-0.2,1.5-0.5,3.8-0.5c0.5,0,5.3,0,6.8,0.9c0.9,0.5,1.4,1.6,1.7,2.7c0.4-1.8,1.2-3.4,3.2-4c1.3-0.4,3.5-0.5,5.1-0.5
						c0.4,0,1.6,0,2.2,0.1c2.3,0.3,5,2.2,5.3,6.4c0.3,3.6-0.9,14.3-2.1,18c-1.2,3.6-5.2,10.7-11.9,12.1
						C122.9,104.4,121.7,104.5,120.6,104.5z M122.2,80.6c-0.1,1.6-0.2,3.4-0.3,4.9C122.1,84,122.2,82.2,122.2,80.6z"/>
				</g>
				<g>
					<path class="st13" d="M162.8,104.8c-1,0-2.4,0-3.1-0.2c-2-0.4-4.2-1.9-4.7-4.1c-0.8,0.5-1.8,0.8-3.1,0.8c-1.1,0-2-0.4-2.7-0.9
						c-0.7,1-2,1.9-3.9,2.3c-1,0.2-2.2,0.3-3.4,0.3c-2.1,0-4.9-0.4-6.2-2.2c-1.3-1.8-1.2-4-1.1-6.3c0-0.3,0-0.6,0-0.9
						c0.1-2.4,1.3-18,1.4-19.6c0-1.2,0.2-4.6,2.7-5.7c0.8-0.3,1.7-0.5,3-0.5c1.2,0,2.3,0.1,2.7,0.2l4.2,0.2c1.6,0,3.5,1,4.1,2.9
						c0.2,0.6,0.8,2.5,1.3,4.4c0.9-1.9,2.8-6,4.3-6.8c0.7-0.3,1.5-0.5,3.2-0.5c1.2,0,2.4,0.1,2.7,0.1c1.3,0,4.2,0.1,5.8,0.9l0.1,0.1
						c2.1,1.1,3.2,2.4,3.1,5.8c-0.1,2.6-2,18.9-2.1,20c-0.6,6.1-1.3,7.2-1.5,7.6C169,104,167.5,104.8,162.8,104.8z"/>
				</g>
				<g>
					<path class="st13" d="M196.4,103.7c-0.1,0-0.2,0-0.3,0c-2.2-0.1-4.7-1.5-5.4-4.1c0-0.1,0-0.2-0.1-0.3c-0.9,0.8-2.2,1.4-4,1.5
						c-0.1,0-0.2,0-0.3,0c-1.2,0-2.4-0.5-3.3-1.2c-0.7,1.1-2,2.3-4.3,2.7c-0.9,0.2-1.8,0.2-2.8,0.2c-1.9,0-5.3-0.3-6.8-2.4
						c-1.2-1.8-1.1-4-0.9-6.3c0-0.3,0-0.6,0.1-0.9c0.2-2.4,1.9-17.9,2.1-19.6c0-1.2,0.4-4.6,2.9-5.6c0.7-0.3,1.5-0.4,2.5-0.4
						c1.4,0,3,0.2,3.3,0.3l3.4,0.4c1.6,0.1,3.4,1.1,3.9,3.1c0.1,0.4,0.4,1.6,0.8,3c0.7-2.2,1.9-5.2,3-5.9c0.5-0.3,1.1-0.8,5.8-1.1
						c0.3,0,1.7-0.2,3-0.2c1.2,0,2.1,0.1,2.9,0.4l0.2,0.1c2.2,0.8,3.5,1.9,3.8,5.4c0.2,2.6,0.4,19,0.4,20.1c0.2,6.1-0.4,7.3-0.5,7.8
						C204.4,103.7,196.7,103.7,196.4,103.7z"/>
				</g>
				<g>
					<path class="st13" d="M208.9,104.4c-1.8-0.3-5.2-2-5.5-5.8c-0.2-2.8,0.5-23.1,0.6-25.5l0-0.1l0-0.1c0.2-1.6,1.3-4.4,4.1-5
						c0.5-0.1,1.6-0.2,5.6-0.2c4.7,0,11,0.2,11.4,0.2c2.1,0,5.3,1.5,5.4,5.6c0.1,3-0.6,5.4-2.1,6.8c-0.6,0.6-1.3,1.1-2.1,1.3
						c0.1,0.2,0.1,0.4,0.2,0.5c0.6,1.8,0.5,4.8-0.5,6.9c0,0,0.1,0,0.1,0c3,1.5,2.8,7.6,2.8,7.9c-0.1,1.9-0.3,6.9-5.3,7.1
						c-2.8,0.2-13.8,0.3-14.3,0.3l-0.3,0L208.9,104.4z"/>
				</g>
				<g>
					<path class="st13" d="M235.4,104.5c-1.6,0-6.6,0-7.9-3.5c-0.8-2.3-0.7-16.8-0.6-25.3c0.1-1.9,0.5-6.3,3.3-7.7
						c2-0.9,7.7-1.6,11.5-1.6c1.1,0,2.1,0.1,2.9,0.2c4.7,0.7,10.7,3.9,12.6,9.5c2.1,6-1.2,11.4-2.7,13c-0.5,0.6-1.1,1-1.6,1.4
						c0.8,1.3,2.1,3.3,2.5,3.8c1.1,1.3,0.9,3.4,0.8,4.1c-0.3,1.6-1.1,2.9-2.2,3.5c-1.3,0.7-4.8,2-7.1,2c0,0,0,0,0,0
						c-0.4,0-0.7,0-1.1-0.1c-1.2-0.3-2.2-1-3-2c-0.6,1.2-1.9,2.3-3.9,2.5C237.5,104.4,236.4,104.5,235.4,104.5z"/>
				</g>
				<path class="st14" d="M93.3,107.4c-4.9,0-9.8-1.2-12-2.5c-3.3-1.8-4.8-5.6-4-10c0.2-1.1,1-3.7,2.8-5.5c-1.3-1.4-2.3-3.1-2.7-5.1
					c-1.7-7.1,0.8-13.4,6.6-16.9c3.9-2.3,8.8-2.8,12.2-2.8c1.4,0,6.3,0.1,8.3,1.4c1.2,0.8,2.1,1.8,2.6,2.9c0.6-0.7,1.3-1.3,2.2-1.6
					c0.7-0.3,1.8-0.6,4.5-0.6c1.7,0,5.9,0.1,7.7,1.2c0.2,0.1,0.4,0.3,0.6,0.4c0.9-1.1,2-1.6,2.9-1.9c1.2-0.4,3.1-0.6,5.6-0.6
					c0.5,0,1.7,0,2.5,0.1c1.4,0.2,2.6,0.7,3.7,1.6c0.4-0.3,0.8-0.6,1.3-0.8c1-0.4,2.2-0.6,3.7-0.6c1.2,0,2.4,0.1,2.9,0.2l4.2,0.2
					c2.1,0.1,4.8,1.3,5.7,4.1c0,0.1,0,0.1,0.1,0.2c1.7-2.9,2.7-3.4,3.1-3.6c1.1-0.6,2.2-0.7,4-0.7c1.2,0,2.4,0.1,2.8,0.1
					c2,0,4.6,0.2,6.4,1.1c0.6-0.7,1.3-1.2,2.1-1.5c0.9-0.3,1.9-0.5,3.2-0.5c1.5,0,3.1,0.2,3.5,0.3l3.3,0.4c1.6,0.1,3.6,1,4.7,2.8
					c0.8-1.4,1.4-2,1.8-2.3c0.8-0.6,1.9-1.1,6.6-1.4c0.5-0.1,1.8-0.2,3.1-0.2c1.4,0,2.6,0.2,3.5,0.5l0.2,0.1
					c0.8,0.3,1.7,0.7,2.6,1.4c0.7-0.5,1.5-0.9,2.3-1c0.6-0.1,1.6-0.3,6-0.3c4.6,0,10.8,0.2,11.5,0.2c1.1,0,2.3,0.3,3.4,0.9
					c0.3-0.2,0.6-0.4,0.9-0.5c2.5-1.2,8.7-1.8,12.2-1.8c1.2,0,2.3,0.1,3.1,0.2c5.2,0.7,11.8,4.4,14,10.7c2.4,6.8-1.4,13-3.1,14.8
					c-0.2,0.2-0.4,0.4-0.6,0.6c0.7,1,1.3,2,1.5,2.3c1.5,1.8,1.3,4.4,1.1,5.5c-0.4,2.2-1.5,3.9-3.1,4.8c-1.4,0.8-5.2,2.2-8,2.2
					c-0.5,0-1,0-1.4-0.1c-0.9-0.2-1.7-0.6-2.5-1.1c-1,0.9-2.4,1.5-3.9,1.6c-1.3,0.1-2.4,0.2-3.5,0.2c-1.4,0-5,0-7.5-1.9
					c-1.1,0.9-2.5,1.4-4.2,1.5c-2.5,0.1-11.5,0.3-14.2,0.3l-0.5,0l-0.4-0.1c-1.2-0.2-2.8-0.9-4.2-2c-3.1,1.4-7.4,1.4-8,1.4
					c-0.1,0-0.3,0-0.4,0c-2.3-0.1-4.8-1.3-6.2-3.5c-0.9,0.4-1.9,0.6-3,0.7c-0.1,0-0.2,0-0.4,0c-1,0-2-0.2-2.9-0.7
					c-1.1,1.1-2.6,1.8-4.4,2.1c-1,0.2-2,0.3-3.1,0.3c-1.4,0-3.2-0.1-4.8-0.7c0,0,0,0.1-0.1,0.1c-1.3,2-3.6,2.8-8.4,2.8
					c-0.5,0-2.4,0-3.4-0.2c-2-0.3-4.1-1.6-5.4-3.6c-0.7,0.2-1.4,0.3-2.1,0.3c-0.9,0-1.7-0.2-2.4-0.5c-0.9,0.8-2.1,1.5-3.9,1.8
					c-1.2,0.2-2.5,0.4-3.7,0.4c-3.6,0-6.3-1-7.6-2.9c-0.4-0.5-0.7-1.1-0.9-1.7c-2.1,2.4-5,4.9-8.9,5.6c-1.3,0.3-2.6,0.4-3.9,0.4
					c-5,0-9.2-2-12-5.8c-1.6,2.3-3.9,4.1-6.8,5.4C99.4,106.9,96.6,107.4,93.3,107.4z"/>
			</g>
			<g>
				<path class="st1" d="M134.3,71.5c0.2-0.2,0.3-0.4,0-0.6c-0.7-0.7-1.2-1-1.5-1.2c0,0,0,0-0.1,0c-0.1-0.1-0.1-0.1-0.1-0.1l0,0
					c-0.4-0.2-0.8-0.3-1.1-0.4c-0.8-0.1-4.7-0.2-6.3,0.3c-1.5,0.5-1.7,3-1.5,6.1c0.2,3.1,0.1,11.7-1.4,14.5
					c-1.5,2.8-3.2,0.6-3.7-1.4c-0.5-2,0.1-10.2,0.4-12.5c0.2-1.5,0.1-3.2-0.1-4.4c0.3-0.2,0.4-0.4,0.3-0.5c-0.3-0.5-0.9-0.8-0.9-0.8
					c-0.7-0.4-6.8-0.9-8.3-0.3c-1.5,0.6-2,5.3-2.2,6.9c-0.2,1.6-1,10.4,1.5,16.7c2.5,6.3,7.9,7.8,13.3,6.8s8.9-7,10-10.4
					c1.1-3.4,2.3-13.6,2-17C134.6,72.5,134.5,72,134.3,71.5z"/>
				<path class="st1" d="M202.5,72c0-0.3-0.1-0.6-0.1-0.9c0.3-0.3,0.5-0.5,0.3-0.7c-0.6-0.6-1.2-1.1-1.3-1.1c0,0,0,0,0,0l0,0l0,0
					c-0.3-0.2-0.7-0.4-1.2-0.5c-1.3-0.5-4.7-0.1-4.7-0.1s-4,0.3-4.6,0.7c-0.6,0.4-2.3,5.5-2.6,6.4c-0.3,0.9-1.3,4.6-2,4.6
					c-0.7,0-0.9-0.8-0.9-0.8s-1.4-5.6-2-7.9c0.3-0.2,0.5-0.4,0.3-0.7c-0.8-0.9-1.3-1.1-1.3-1.1l0,0c-0.5-0.3-0.9-0.3-0.9-0.3
					l-3.5-0.5c0,0-3.2-0.6-4.5-0.1c-1.3,0.5-1.3,3.4-1.3,3.4s-1.9,17.1-2.1,19.6s-0.5,4.4,0.4,5.6c0,0,0.5,0.7,1.4,1.3
					c0.2,0.1,0.4,0,0.5-0.2c1.5,0.3,3.4,0.4,5.1,0.1c2.6-0.5,2.9-2.2,2.9-2.2l0.6-8.6c0,0,1,4.6,1,5.6c0,0.9,1.8,3.8,3.7,3.7
					c2.7-0.2,3.2-2,3.2-2l3-7.7c0,0,0.1,9,0.5,10.4c0.1,0.4,0.3,0.7,0.6,1l0,0c0,0,0.2,0.5,1.6,1.4c0.3,0.2,0.6,0.1,0.8-0.2
					c0,0,0,0,0,0c1,0,6.8-0.5,7.3-1.6c0.5-1.1,0.3-6.6,0.3-6.6S202.8,74.6,202.5,72z"/>
				<path class="st1" d="M100,81.6c-4.3-1.6-6.9-1.1-7.8-1.6c-0.9-0.5-0.9-2,1.2-1.9c2.1,0.1,5.7,0.9,6.5,0.9c0.8,0,2.2-0.7,2.7-3.9
					c0.3-1.8,0.3-3.2,0-4.3c0.5,0.2,0.9,0.1,0.4-0.4c-1.2-1.4-1.9-1.7-1.9-1.7l0,0c-1.1-0.5-10.4-1.7-15.9,1.5
					c-4.2,2.5-5.9,6.9-4.6,12.2c1.3,5.3,7.8,6.3,8.9,6.6c1.1,0.3,3.4,0.7,3.4,1.6c0,0.9-1.1,2-4.1,1.5c-3.1-0.5-4.5-1.6-5.6-1.3
					c-1.1,0.3-2.3,2.7-2.6,4c-0.2,1-0.4,2.8,0.5,4.2l0,0c0,0,0.7,1.3,2.6,2.2c0.6,0.3,0.9,0.2,1-0.1c3.6,1.1,9.9,1.8,14.4-0.2
					c5.7-2.5,7-7.4,7.1-10.1C106.2,88.1,104.3,83.1,100,81.6z"/>
				<path class="st1" d="M249,89.6c-0.6-1.2,1.6-2,2.7-3.2c1.1-1.2,3.8-5.6,2.2-10.4c-1.7-4.8-6.9-7.3-10.6-7.9
					c-3.6-0.5-11.2,0.4-12.9,1.2c-1.7,0.8-1.8,5.4-1.8,5.4s-0.4,22.2,0.4,24.3c0,0.1,0.1,0.2,0.2,0.3l0,0c0,0,0,0,0,0c0,0,0,0,0,0
					c0.1,0.2,0.6,0.8,1.7,1.4c0.2,0.1,0.5,0,0.6-0.3c2,0.4,4.7,0.2,6.1,0.1c2.2-0.2,2.2-2.3,2.2-2.3s-0.1-6.5-0.1-6.9
					c0-0.4,0.5-0.8,0.9-0.6c0.4,0.2,0.9,2.2,1.4,4.2c0.4,1.5,1.2,3.4,2.2,4.5l0,0c0,0,0.4,1,2.1,1.5c0.5,0.1,0.8-0.3,0.9-0.9
					c1.7-0.3,3.8-1.1,4.6-1.5c1.2-0.6,1.2-3.2,0.8-3.7C252,94.5,249.5,90.8,249,89.6z M241.6,83.1c-0.6,0.2-1.7,0-1.8-1.3
					c-0.1-1.3-0.1-3.5,0.2-3.8c0.2-0.3,0.9-0.8,1.9-0.6c1,0.3,2,1.6,2,2.4C243.9,80.8,242.1,82.9,241.6,83.1z"/>
				<path class="st1" d="M170.4,72.4c-0.5-0.6-1.3-1.2-1.5-1.3c0,0,0,0,0,0c0,0-0.1-0.1-0.1-0.1l0,0c-0.2-0.1-0.5-0.3-0.7-0.4
					c-1.2-0.6-4.7-0.6-4.7-0.6s-4-0.2-4.6,0.1c-0.6,0.3-3,5.2-3.4,6.1c-0.4,0.9-1.9,4.4-2.6,4.3c-0.7-0.1-0.8-0.9-0.8-0.9
					s-1.6-5.5-2.3-7.8c0.3-0.2,0.4-0.5,0.3-0.6c-0.5-0.6-1.1-0.9-1.1-0.9l0,0c-0.5-0.4-1.2-0.4-1.2-0.4l-4.4-0.2
					c0,0-3.2-0.4-4.5,0.1c-1.3,0.5-1.2,3.4-1.2,3.4s-1.3,17.2-1.4,19.6c-0.1,2.5-0.3,4.4,0.5,5.5c0,0,0.2,0.3,1.2,1.1
					c0.3,0.2,0.5,0.1,0.6-0.2c1.5,0.3,3.6,0.3,5.2,0c2.6-0.5,2.8-2.3,2.8-2.3l0.3-8.6c0,0,1.1,4.6,1.2,5.5c0,0.6,0.4,2,1.2,2.9l0,0
					c0,0,0.8,1,1.9,1.6c0.4,0.2,0.6-0.2,0.6-0.7c1.4-0.3,2-1.2,2-1.2l3.5-8.2c0,0-1,8.9-0.8,10.4c0,0.2,0.1,0.4,0.2,0.6l0,0
					c0,0,0.1,1,2.6,2.4c0.8,0.4,1.1,0.2,1.1-0.4c2,0.1,5.8,0,6.3-0.8c0.6-1,1.1-6.5,1.1-6.5s2-17.3,2.1-19.8c0-0.4,0-0.7,0-1
					C170.3,72.8,170.5,72.5,170.4,72.4z"/>
				<path class="st1" d="M225.5,69.8L225.5,69.8c-0.7-0.4-1.4-0.4-1.4-0.4s-14.7-0.4-16.5,0c-1.8,0.4-2.1,2.8-2.1,2.8
					s-0.8,22.5-0.6,25.2c0,0.8,0.3,1.4,0.7,1.9l0,0c0,0,0,0.1,0.1,0.1c0,0,0,0,0,0c0.3,0.3,1.1,1.2,2.3,1.8c0.3,0.2,0.6,0,0.9-0.4
					c2.5,0,11.1-0.2,13.5-0.3c2.8-0.2,2.8-2.8,2.9-4.7c0-1.2-0.1-2.7-0.5-3.9c0.3-0.2,0.4-0.4,0.3-0.6c-0.3-0.4-0.7-0.7-1-0.8
					c-0.1-0.1-0.1-0.1-0.2-0.1c-0.9-0.5-4.2,0-5.5,0c-1.3,0-2.1,0-2.5-0.9c-0.5-0.9,0.6-1.6,0.6-1.6s5,0.2,5.8-0.3
					c0.7-0.5,1.3-3.3,0.9-5.3c0.2-0.2,0.3-0.4,0.3-0.5c-0.4-0.5-1.1-1-1.4-1.1c0,0-0.1,0-0.1,0c0,0,0,0,0,0l0,0
					c-1.1-0.5-2.7-0.4-3.6-0.2c-1.3,0.2-2.2-0.4-1.8-1.2c0.3-0.8,1.5-0.8,1.5-0.8s2.8,0.1,5.4,0.1c2.6,0,3.5-2.7,3.5-5.8
					c0-0.3-0.1-0.6-0.1-0.9c0.3-0.2,0.4-0.3,0.4-0.4C226.8,70.5,225.5,69.8,225.5,69.8z"/>
			</g>
			<path class="st7" d="M169.1,71.5c-1.2-0.6-4.7-0.6-4.7-0.6s-4-0.2-4.6,0.1c-0.6,0.3-3,5.2-3.4,6.1s-1.9,4.4-2.6,4.3
				c-0.7-0.1-0.8-0.9-0.8-0.9s-2.1-7.4-2.5-8.5c-0.4-1.2-1.8-1.2-1.8-1.2l-4.4-0.2c0,0-3.2-0.4-4.5,0.1c-1.3,0.5-1.2,3.4-1.2,3.4
				s-1.3,17.2-1.4,19.6c-0.1,2.5-0.3,4.4,0.5,5.5c0.9,1.2,4.4,1.4,7,0.8c2.6-0.5,2.8-2.3,2.8-2.3l0.3-8.6c0,0,1.1,4.6,1.2,5.5
				c0.1,0.9,0.9,3.9,2.9,3.9c2,0,2.8-1.3,2.8-1.3l3.5-8.2c0,0-1,8.9-0.8,10.4c0.2,1.5,1.8,2.3,2.8,2.5c1,0.2,6.8,0.3,7.4-0.7
				c0.6-1,1.1-6.5,1.1-6.5s2-17.3,2.1-19.8C171.1,72.4,170.4,72.2,169.1,71.5z M132.7,70.1c-0.8-0.1-4.7-0.2-6.3,0.3
				c-1.5,0.5-1.7,3-1.5,6.1c0.2,3.1,0.1,11.7-1.4,14.5c-1.5,2.8-3.2,0.6-3.7-1.4c-0.5-2,0.1-10.2,0.4-12.5s-0.1-5.3-0.7-5.7
				c-0.7-0.4-6.8-0.9-8.3-0.3c-1.5,0.6-2,5.3-2.2,6.9c-0.2,1.6-1,10.4,1.5,16.7c2.5,6.3,7.9,7.8,13.3,6.8c5.3-1.1,8.9-7,10-10.4
				c1.1-3.4,2.3-13.6,2-17C135.5,70.8,133.5,70.3,132.7,70.1z M101.1,82.5c-4.3-1.6-6.9-1.1-7.8-1.6c-0.9-0.5-0.9-2,1.2-1.9
				c2.1,0.1,5.7,0.9,6.5,0.9c0.8,0,2.2-0.7,2.7-3.9c0.5-3.2,0.3-5.3-1.4-6.4c-0.8-0.5-10.4-1.8-16,1.5c-4.2,2.5-5.9,6.9-4.6,12.2
				c1.3,5.3,7.8,6.3,8.9,6.6c1.1,0.3,3.4,0.7,3.4,1.6c0,0.9-1.1,2-4.1,1.5c-3.1-0.5-4.5-1.6-5.6-1.3c-1.1,0.3-2.3,2.7-2.6,4
				c-0.3,1.4-0.5,4.1,1.8,5.4c2.4,1.3,11,3.2,16.6,0.7c5.7-2.5,7-7.4,7.1-10.1C107.4,89,105.4,84.1,101.1,82.5z M203.7,73
				c-0.2-2.6-1-2.7-2.3-3.2c-1.3-0.5-4.7-0.1-4.7-0.1s-4,0.3-4.6,0.7c-0.6,0.4-2.3,5.5-2.6,6.4c-0.3,0.9-1.3,4.6-2,4.6
				c-0.7,0-0.9-0.8-0.9-0.8s-1.8-7.4-2.2-8.6c-0.4-1.2-1.7-1.3-1.7-1.3l-3.5-0.5c0,0-3.2-0.6-4.5-0.1c-1.3,0.5-1.3,3.4-1.3,3.4
				s-1.9,17.1-2.1,19.6c-0.2,2.5-0.5,4.4,0.4,5.6c0.8,1.2,4.4,1.6,7,1.1c2.6-0.5,2.9-2.2,2.9-2.2L182,89c0,0,1,4.6,1,5.6
				c0,0.9,1.8,3.8,3.7,3.7c2.7-0.2,3.2-2,3.2-2l3-7.7c0,0,0.1,9,0.5,10.4c0.4,1.4,2.1,2.1,3,2.1c1,0,6.8-0.5,7.3-1.6
				c0.5-1.1,0.3-6.6,0.3-6.6S203.9,75.5,203.7,73z M250.1,90.5c-0.6-1.2,1.6-2,2.7-3.2c1.1-1.2,3.8-5.6,2.2-10.4
				c-1.7-4.8-6.9-7.3-10.6-7.9c-3.6-0.5-11.2,0.4-12.9,1.2c-1.7,0.8-1.8,5.4-1.8,5.4s-0.4,22.2,0.4,24.3c0.8,2.2,6.3,1.8,8.6,1.6
				c2.2-0.2,2.2-2.3,2.2-2.3s-0.1-6.5-0.1-6.9c0-0.4,0.5-0.8,0.9-0.6c0.4,0.2,0.9,2.2,1.4,4.2c0.5,2,1.8,4.8,3.4,5.1
				c1.6,0.3,5.3-1,6.5-1.6c1.2-0.6,1.2-3.2,0.8-3.7C253.1,95.5,250.7,91.7,250.1,90.5z M242.7,84.1c-0.6,0.2-1.7,0-1.8-1.3
				c-0.1-1.3-0.1-3.5,0.2-3.8c0.2-0.3,0.9-0.8,1.9-0.6c1,0.3,2,1.6,2,2.4C245,81.8,243.3,83.9,242.7,84.1z M225.3,70.3
				c0,0-14.7-0.4-16.5,0s-2.1,2.8-2.1,2.8s-0.8,22.5-0.6,25.2c0.2,2.8,3.4,3.4,3.4,3.4s11.4-0.2,14.1-0.3c2.8-0.2,2.8-2.8,2.9-4.7
				s-0.5-5-1.4-5.5c-0.9-0.5-4.2,0-5.5,0c-1.3,0-2.1,0-2.5-0.9c-0.5-0.9,0.6-1.6,0.6-1.6s5,0.2,5.8-0.3c0.8-0.5,1.4-3.6,0.8-5.6
				s-3.4-1.7-4.7-1.5c-1.3,0.2-2.2-0.4-1.8-1.2c0.3-0.8,1.5-0.8,1.5-0.8s2.8,0.1,5.4,0.1c2.6,0,3.5-2.7,3.5-5.8
				C228,70.3,225.3,70.3,225.3,70.3z"/>
		</g>
		<g>
			<path class="st7" d="M130.2,119.5l0.3-0.2c0.3-0.2,0.6-0.3,0.7-0.3c0.3,0,0.6,0.3,1,0.8c0.2,0.3,0.3,0.6,0.3,0.8
				c0,0.2-0.1,0.4-0.2,0.5c-0.1,0.1-0.3,0.3-0.5,0.4c-0.2,0.1-0.3,0.2-0.5,0.3c-0.2,0.1-0.5,0.2-1,0.4c-0.5,0.2-1,0.2-1.5,0.2
				s-0.9-0.1-1.4-0.2c-0.5-0.1-1-0.3-1.5-0.6c-0.5-0.3-1-0.6-1.4-1.1s-0.7-1-1-1.6c-0.3-0.7-0.4-1.4-0.4-2.1c0-0.8,0.1-1.5,0.4-2.1
				c0.3-0.6,0.6-1.1,1-1.6c0.4-0.4,0.9-0.7,1.4-1c1-0.5,1.9-0.8,2.9-0.8c0.5,0,0.9,0.1,1.4,0.2c0.5,0.1,0.8,0.3,1.1,0.4l0.4,0.2
				c0.2,0.1,0.3,0.2,0.4,0.3c0.3,0.2,0.4,0.4,0.4,0.7c0,0.3-0.1,0.5-0.3,0.8c-0.4,0.5-0.7,0.8-1,0.8c-0.2,0-0.4-0.1-0.8-0.3
				c-0.4-0.3-1-0.5-1.7-0.5c-0.6,0-1.3,0.2-1.9,0.7c-0.3,0.2-0.5,0.5-0.7,0.9c-0.2,0.4-0.3,0.8-0.3,1.3c0,0.5,0.1,0.9,0.3,1.3
				c0.2,0.4,0.4,0.7,0.8,0.9c0.6,0.4,1.2,0.6,1.9,0.6c0.3,0,0.6,0,0.9-0.1C129.9,119.7,130.1,119.6,130.2,119.5z"/>
			<path class="st7" d="M140.5,111.9c0.1-0.1,0.2-0.3,0.4-0.3c0.2-0.1,0.4-0.1,0.7-0.1s0.5,0,0.7,0.1c0.2,0,0.3,0.1,0.4,0.2
				c0.1,0.1,0.2,0.2,0.2,0.3c0,0.2,0.1,0.4,0.1,0.8v8.2c0,0.2,0,0.4,0,0.5c0,0.1-0.1,0.2-0.1,0.4c-0.1,0.3-0.5,0.4-1.2,0.4
				c-0.7,0-1.1-0.2-1.2-0.5c-0.1-0.2-0.1-0.4-0.1-0.8v-3h-3.9v3c0,0.2,0,0.4,0,0.5c0,0.1-0.1,0.2-0.1,0.4c-0.1,0.3-0.5,0.4-1.2,0.4
				c-0.7,0-1.1-0.2-1.2-0.5c-0.1-0.2-0.1-0.4-0.1-0.8v-8.2c0-0.2,0-0.4,0-0.5c0-0.1,0.1-0.2,0.1-0.4c0.1-0.3,0.5-0.4,1.2-0.4
				c0.7,0,1.1,0.2,1.2,0.5c0,0.2,0.1,0.4,0.1,0.8v3h3.9v-3c0-0.2,0-0.4,0-0.5C140.3,112.2,140.4,112.1,140.5,111.9z"/>
			<path class="st7" d="M150.6,112.3l4,8.2c0.2,0.3,0.3,0.6,0.3,0.8c0,0.4-0.3,0.7-0.9,1c-0.3,0.2-0.6,0.3-0.8,0.3
				c-0.2,0-0.3,0-0.5-0.1c-0.1-0.1-0.2-0.2-0.3-0.3c-0.1-0.1-0.1-0.2-0.2-0.4l-0.8-1.6h-4.1l-0.8,1.6c-0.1,0.2-0.2,0.3-0.2,0.4
				c-0.1,0.1-0.1,0.2-0.3,0.3c-0.1,0.1-0.3,0.1-0.5,0.1c-0.2,0-0.5-0.1-0.8-0.3c-0.6-0.3-0.9-0.6-0.9-0.9c0-0.2,0.1-0.4,0.3-0.8
				l4-8.3c0.1-0.2,0.3-0.4,0.5-0.5c0.2-0.1,0.5-0.2,0.7-0.2C150,111.5,150.4,111.8,150.6,112.3z M149.4,115.8l-1,2h2L149.4,115.8z"
				/>
			<path class="st7" d="M158.6,120.2h4c0.3,0,0.6,0,0.7,0.1c0.1,0.1,0.2,0.2,0.3,0.3c0,0.2,0.1,0.4,0.1,0.6c0,0.3,0,0.5-0.1,0.6
				c0,0.2-0.1,0.3-0.3,0.3c-0.2,0.1-0.4,0.1-0.8,0.1h-5.3c-0.7,0-1.1-0.2-1.2-0.6c-0.1-0.2-0.1-0.4-0.1-0.8v-8.2c0-0.2,0-0.4,0-0.5
				c0-0.1,0.1-0.2,0.1-0.4c0.1-0.3,0.5-0.4,1.2-0.4c0.7,0,1.1,0.2,1.2,0.5c0,0.2,0.1,0.4,0.1,0.8V120.2z"/>
			<path class="st7" d="M167.5,120.2h4c0.3,0,0.6,0,0.7,0.1c0.1,0.1,0.2,0.2,0.3,0.3c0,0.2,0.1,0.4,0.1,0.6c0,0.3,0,0.5-0.1,0.6
				c0,0.2-0.1,0.3-0.3,0.3c-0.2,0.1-0.4,0.1-0.8,0.1h-5.3c-0.7,0-1.1-0.2-1.2-0.6c-0.1-0.2-0.1-0.4-0.1-0.8v-8.2c0-0.2,0-0.4,0-0.5
				c0-0.1,0.1-0.2,0.1-0.4c0.1-0.3,0.5-0.4,1.2-0.4c0.7,0,1.1,0.2,1.2,0.5c0,0.2,0.1,0.4,0.1,0.8V120.2z"/>
			<path class="st7" d="M176.5,119.7h4.5c0.2,0,0.4,0,0.5,0c0.1,0,0.2,0.1,0.4,0.1c0.3,0.1,0.4,0.5,0.4,1.2c0,0.7-0.2,1.1-0.5,1.2
				c-0.2,0.1-0.4,0.1-0.8,0.1h-5.8c-0.7,0-1.1-0.2-1.2-0.6c-0.1-0.2-0.1-0.4-0.1-0.8v-8.2c0-0.5,0.1-0.8,0.3-1
				c0.2-0.2,0.5-0.3,1.1-0.3h5.8c0.2,0,0.4,0,0.5,0c0.1,0,0.2,0.1,0.4,0.1c0.3,0.1,0.4,0.5,0.4,1.2c0,0.7-0.2,1.1-0.5,1.2
				c-0.2,0.1-0.4,0.1-0.8,0.1h-4.5v1.5h2.9c0.2,0,0.4,0,0.5,0c0.1,0,0.2,0.1,0.4,0.1c0.3,0.1,0.4,0.5,0.4,1.2c0,0.7-0.2,1.1-0.6,1.2
				c-0.2,0.1-0.4,0.1-0.8,0.1h-2.9V119.7z"/>
			<path class="st7" d="M190.6,112c0.1-0.2,0.2-0.3,0.4-0.3c0.2-0.1,0.4-0.1,0.7-0.1c0.3,0,0.5,0,0.7,0.1c0.2,0,0.3,0.1,0.4,0.2
				c0.1,0.1,0.1,0.2,0.2,0.3c0.1,0.2,0.1,0.4,0.1,0.8v8.2c0,0.2,0,0.4,0,0.5c0,0.1-0.1,0.2-0.1,0.4c-0.1,0.3-0.5,0.4-1.2,0.4
				c-0.4,0-0.6,0-0.8-0.1c-0.1-0.1-0.3-0.2-0.4-0.3c-2.2-3-3.7-4.9-4.4-5.8v4.9c0,0.2,0,0.4,0,0.5c0,0.1-0.1,0.2-0.1,0.4
				c-0.1,0.3-0.5,0.4-1.2,0.4c-0.6,0-1-0.1-1.1-0.4c-0.1-0.1-0.1-0.3-0.1-0.4c0-0.1,0-0.3,0-0.5v-8.2c0-0.4,0-0.6,0.1-0.8
				c0.1-0.2,0.2-0.3,0.4-0.3c0.2-0.1,0.4-0.1,0.7-0.1s0.5,0,0.7,0.1c0.2,0.1,0.3,0.1,0.4,0.2c0,0,0.2,0.2,0.3,0.4
				c2.1,2.8,3.5,4.7,4.2,5.6v-5C190.5,112.4,190.5,112.1,190.6,112z"/>
			<path class="st7" d="M200.2,115.8h2.6c0.5,0,0.9,0.2,1,0.4c0.1,0.2,0.1,0.5,0.1,0.8v3.2c0,0.3-0.1,0.6-0.4,0.9
				c-0.8,0.9-2.1,1.3-3.7,1.3c-1.5,0-2.7-0.6-3.8-1.7c-1.1-1.1-1.6-2.4-1.6-4c0-1.6,0.6-2.9,1.7-3.9c1.1-1,2.4-1.6,3.9-1.6
				c1.2,0,2.3,0.4,3.3,1.2c0.3,0.2,0.4,0.4,0.4,0.7c0,0.2-0.1,0.5-0.3,0.8c-0.4,0.5-0.7,0.8-1,0.8c-0.2,0-0.5-0.1-0.9-0.4
				c-0.4-0.3-0.9-0.4-1.5-0.4c-0.7,0-1.4,0.3-2,0.8c-0.6,0.5-0.9,1.2-0.9,2.1c0,0.9,0.3,1.6,0.9,2.2c0.6,0.6,1.3,0.9,2,0.9
				c0.5,0,1-0.1,1.5-0.3V118h-1.2c-0.3,0-0.5,0-0.6-0.1c-0.1-0.1-0.2-0.2-0.3-0.3c0-0.2-0.1-0.4-0.1-0.6c0-0.3,0-0.5,0.1-0.6
				c0-0.2,0.1-0.3,0.2-0.3C199.6,115.9,199.9,115.8,200.2,115.8z"/>
			<path class="st7" d="M208,119.7h4.5c0.2,0,0.4,0,0.5,0c0.1,0,0.2,0.1,0.4,0.1c0.3,0.1,0.4,0.5,0.4,1.2c0,0.7-0.2,1.1-0.5,1.2
				c-0.2,0.1-0.4,0.1-0.8,0.1h-5.8c-0.7,0-1.1-0.2-1.2-0.6c-0.1-0.2-0.1-0.4-0.1-0.8v-8.2c0-0.5,0.1-0.8,0.3-1
				c0.2-0.2,0.5-0.3,1.1-0.3h5.8c0.2,0,0.4,0,0.5,0c0.1,0,0.2,0.1,0.4,0.1c0.3,0.1,0.4,0.5,0.4,1.2c0,0.7-0.2,1.1-0.5,1.2
				c-0.2,0.1-0.4,0.1-0.8,0.1H208v1.5h2.9c0.2,0,0.4,0,0.5,0c0.1,0,0.2,0.1,0.4,0.1c0.3,0.1,0.4,0.5,0.4,1.2c0,0.7-0.2,1.1-0.6,1.2
				c-0.2,0.1-0.4,0.1-0.8,0.1H208V119.7z"/>
		</g>
		<g>
			<g>
				<path class="st14" d="M193.1,49.3c-1.5,0-1.7,1.2-1.7,2.5v4.5h-2.2v-5c0-1-0.1-2-1.4-2c-1.5,0-1.7,1.2-1.7,2.5v4.5h-2.2v-8.6
					h2.2v1.1c0.5-0.9,1.3-1.3,2.4-1.3c1.5,0,2.1,0.8,2.4,1.4c0.7-1,1.5-1.4,2.8-1.4c2.1,0,2.9,1.3,2.9,3.4v5.4h-2.1v-5
					C194.5,50.3,194.4,49.3,193.1,49.3z"/>
				<path class="st14" d="M201.9,44.7c2.4,0,5.1,0.3,5.1,3.8c0,3-2.4,3.7-5,3.7h-1.7v4H198V44.7H201.9z M200.2,46.5v4h1.9
					c1.4,0,2.5-0.3,2.5-1.9c0-1.9-1.4-2-2.7-2L200.2,46.5L200.2,46.5z"/>
				<path class="st14" d="M206.8,52c0-3,2-4.5,4.2-4.5s4.2,1.5,4.2,4.5s-2,4.5-4.2,4.5S206.8,55,206.8,52z M209.1,52
					c0,1.8,0.8,2.8,2,2.8c1.3,0,2-1,2-2.8s-0.8-2.8-2-2.8C209.8,49.2,209.1,50.2,209.1,52z"/>
				<path class="st14" d="M219.7,47.7h2.3l1.3,5.9l1.1-5.9h2.2l-2,8.6h-2.3l-1.6-6.5l-1.6,6.5h-2.3l-2-8.6h2.2l1.1,5.9L219.7,47.7z"
					/>
				<path class="st14" d="M226.3,51.9c0-2.6,1.7-4.4,4.2-4.4c2.7,0,4.2,2,4.1,5.1h-6.2c0,1.3,0.9,2.2,2.1,2.2c0.7,0,1.3-0.2,1.8-1
					h2.3c-0.5,1.3-1.6,2.7-4,2.7C227.9,56.5,226.3,54.4,226.3,51.9z M228.5,51.1h4c0-1.4-1-2-2-2C229.6,49.1,228.7,49.7,228.5,51.1z
					"/>
				<path class="st14" d="M240.3,49.8c-0.3,0-0.6,0-0.9,0c-1.1,0-1.8,0.4-1.8,2v4.5h-2.2v-8.6h2.1v1.5c0.5-1,1.3-1.5,2.3-1.5
					c0.1,0,0.3,0,0.5,0V49.8z"/>
			</g>
			<path class="st15" d="M138.2,51.8c0.5,0,0.7,0.5,0.7,0.9c0,0.9-0.1,1.8-0.4,2.4c-0.4,0.7-1,1-2.1,1l0,0c-0.8,0-1.6-0.3-2-1
				c-0.2-0.5-0.3-0.9-0.3-2.1v-3.5c0-0.5,0-0.4-0.4-0.4c-0.3,0-0.6,0-0.8-0.1c-0.2-0.1-0.3-0.3-0.3-0.6c0-0.3,0.3-0.7,0.7-0.7h0.6
				c0.1,0,0.1,0,0.2,0c0,0,0-0.1,0-0.4V46c0-0.2,0-0.4,0.1-0.6c0-0.1,0.2-0.3,0.5-0.2c0.3,0,0.5,0.1,0.6,0.3
				c0.1,0.1,0.1,0.4,0.1,0.6v1.6c0,0.1,0,0.1,0,0.1s0,0,0.1,0h1.6c0.3,0,0.6,0,0.7,0.2c0.1,0.1,0.2,0.3,0.2,0.5c0,0.1,0,0.3-0.2,0.5
				c-0.1,0.1-0.4,0.2-0.8,0.2h-1.3c-0.2,0-0.3,0-0.3,0c0,0,0,0,0,0.2v3.8c0,1.4,0.3,1.8,1,1.8c0.9,0,1-0.7,1-1.5v-0.5
				c0-0.4,0-0.6,0.1-0.8C137.7,51.9,138,51.8,138.2,51.8 M148.3,47.7c-0.5,0-1,0.2-1.5,0.2c-0.5,0-1.1-0.2-1.5-0.2
				c-0.4,0-0.6,0.3-0.6,0.6c0,0.4,0.3,0.7,0.6,0.7c0.2,0,0.3,0,0.4-0.1c0.1,0,0.1,0,0.2,0c0,0,0.1,0,0.1,0.2c0,0.1-0.1,0.4-0.2,0.7
				l-1.7,4.6l-1.9-5c0-0.1-0.1-0.3-0.1-0.4s0-0.1,0.1-0.1c0.1,0,0.2,0,0.3,0c0.1,0,0.2,0.1,0.3,0.1c0.3,0,0.6-0.2,0.7-0.7
				c0-0.4-0.3-0.6-0.8-0.6s-1,0.2-1.6,0.2s-1-0.2-1.4-0.2c-0.2,0-0.4,0-0.6,0.2c-0.1,0.1-0.2,0.3-0.2,0.4c0,0.4,0.2,0.7,0.5,0.7
				c0.1,0,0.2,0,0.4-0.1c0.1,0,0.1,0,0.2,0c0.1,0,0.3,0.1,0.5,0.7l2.2,5.6c0.2,0.5,0.5,1,1.1,1l0,0c0.7,0,1-0.5,1.1-1l2.2-5.4
				c0.1-0.4,0.2-0.6,0.3-0.8c0-0.1,0.1-0.1,0.1-0.1c0,0,0.1,0,0.3,0c0.1,0,0.2,0.1,0.4,0.1c0.3,0,0.7-0.2,0.7-0.7
				C149,48,148.7,47.7,148.3,47.7 M155.6,48.7c0.7,0.9,1,2,1,3.1c0,2.4-1.4,4.4-4,4.4c-2.6,0-3.8-2-3.8-4.4c0-2.3,1.2-4.4,3.9-4.4
				C153.8,47.6,154.8,47.8,155.6,48.7 M152.6,55.1c1.9,0,2.4-1.6,2.5-3.2c0-0.7-0.1-1.6-0.6-2.2c-0.4-0.6-1.1-0.9-1.8-0.9
				c-0.9,0-1.5,0.3-1.9,1c-0.3,0.6-0.5,1.4-0.5,2.1C150.3,53.5,150.9,55.1,152.6,55.1"/>
			<path class="st15" d="M170,41.3L170,41.3c-5.3,0-9.5,4.2-9.5,9.4v0.1c0,5.2,4.2,9.4,9.4,9.4h0.1c5.2,0,9.4-4.2,9.4-9.4v-0.1
				C179.4,45.5,175.2,41.3,170,41.3z M163.6,48.5c0-0.4,0.2-0.8,0.7-0.8c0.5,0,1,0,1.6,0c0-0.5,0-1,0-1.4c0-0.5,0.3-0.8,0.8-0.9
				c0.4,0,0.8,0.2,0.8,0.7c0,0.5,0,1,0,1.5c0.5,0,1,0,1.4,0c0.5,0,0.9,0.3,0.9,0.8c0,0.5-0.3,0.8-0.9,0.8c-0.4,0-0.9,0-1.3,0
				c0,0,0,0-0.1,0c0,0.5,0,1,0,1.5c0,0.4-0.3,0.7-0.8,0.7c-0.4,0-0.8-0.3-0.8-0.7c0-0.3,0-0.6,0-0.9v-0.6c-0.5,0-1,0-1.4,0
				C163.9,49.2,163.6,48.9,163.6,48.5z M169.9,56.9c-2,0-4-0.8-5.6-2.5l1-1c2.7,2.7,6.4,2.7,9.1,0l1,1
				C173.9,56.1,171.9,56.9,169.9,56.9z M175.5,49.3L175.5,49.3H174l0,0c-0.5,0-1,0-1.4,0c-0.6,0-0.9-0.4-0.9-0.9s0.3-0.9,0.9-0.9
				c1,0,1.9,0,2.8,0c0.5,0,0.9,0.3,0.9,0.9C176.3,49,176,49.3,175.5,49.3z"/>
		</g>
		<path class="st16" d="M230.4,115.8c0.2-0.2,0.3-0.5,0.2-0.7c-0.1-0.3-0.3-0.4-0.6-0.5l-2.3-0.3c-0.1,0-0.2-0.1-0.2-0.2l-1-2.1
			c-0.1-0.2-0.4-0.4-0.6-0.4c-0.3,0-0.5,0.1-0.6,0.4l-1,2.1c0,0.1-0.1,0.2-0.2,0.2l-2.3,0.3c-0.3,0-0.5,0.2-0.6,0.5
			c-0.1,0.3,0,0.5,0.2,0.7l1.7,1.7c0.1,0.1,0.1,0.2,0.1,0.3l-0.4,2.3c0,0.2,0,0.4,0.2,0.6c0.2,0.2,0.6,0.3,0.9,0.2l2.1-1.1
			c0.1,0,0.2,0,0.3,0l2.1,1.1c0.1,0.1,0.2,0.1,0.3,0.1c0.2,0,0.4-0.1,0.5-0.3c0.1-0.2,0.2-0.4,0.2-0.6l-0.4-2.3c0-0.1,0-0.2,0.1-0.3
			L230.4,115.8z"/>
		<path class="st16" d="M116.3,115.8c0.2-0.2,0.3-0.5,0.2-0.7c-0.1-0.3-0.3-0.4-0.6-0.5l-2.3-0.3c-0.1,0-0.2-0.1-0.2-0.2l-1-2.1
			c-0.1-0.2-0.4-0.4-0.6-0.4c-0.3,0-0.5,0.1-0.6,0.4l-1,2.1c0,0.1-0.1,0.2-0.2,0.2l-2.3,0.3c-0.3,0-0.5,0.2-0.6,0.5
			c-0.1,0.3,0,0.5,0.2,0.7l1.7,1.7c0.1,0.1,0.1,0.2,0.1,0.3l-0.4,2.3c0,0.2,0,0.4,0.2,0.6c0.2,0.2,0.6,0.3,0.9,0.2l2.1-1.1
			c0.1,0,0.2,0,0.3,0l2.1,1.1c0.1,0.1,0.2,0.1,0.3,0.1c0.2,0,0.4-0.1,0.5-0.3c0.1-0.2,0.2-0.4,0.2-0.6l-0.4-2.3c0-0.1,0-0.2,0.1-0.3
			L116.3,115.8z"/>
	</g>
</g>
</svg>